<svg width="240" height="240" viewBox="0 0 240 240" fill="none" xmlns="http://www.w3.org/2000/svg">
<path d="M189.23 177.114C189.23 185.366 182.479 192.114 174.23 192.114C165.979 192.114 159.231 185.366 159.231 177.114V62.8857C159.231 54.6339 165.979 47.8828 174.23 47.8828C182.479 47.8828 189.23 54.6339 189.23 62.8857V177.114ZM136.152 140.191C136.152 148.443 129.404 155.194 121.152 155.194C112.904 155.194 106.153 148.443 106.153 140.191V88.2691C106.153 80.0174 112.904 73.2695 121.152 73.2695C129.404 73.2695 136.152 80.0174 136.152 88.2691V140.191ZM80.7693 177.114C80.7693 185.366 74.0182 192.114 65.7664 192.114C57.518 192.114 50.7669 185.366 50.7669 177.114V62.8857C50.7669 54.6339 57.518 47.8828 65.7664 47.8828C74.0182 47.8828 80.7693 54.6339 80.7693 62.8857V177.114ZM120 -4.14568e-06C53.7258 -4.14568e-06 0 53.7257 0 120C0 186.274 53.7258 240 120 240C186.274 240 240 186.274 240 120C240 53.7257 186.274 -4.14568e-06 120 -4.14568e-06Z" fill="white"/>
</svg>
