<svg width="481" height="100" viewBox="0 0 481 100" fill="none" xmlns="http://www.w3.org/2000/svg">
<path d="M470.492 56.9921C470.257 57.9686 469.852 58.8068 469.275 59.508C468.697 60.2106 467.92 60.7612 466.944 61.1586C465.967 61.5587 464.737 61.7581 463.252 61.7581C461.765 61.7581 460.534 61.5587 459.559 61.1586C458.582 60.7612 457.805 60.2106 457.227 59.508C456.649 58.8068 456.251 57.9686 456.029 56.9921C455.81 56.0155 455.7 54.9359 455.7 53.7532C455.7 52.5705 455.81 51.4909 456.029 50.5144C456.251 49.5378 456.649 48.7064 457.227 48.0188C457.805 47.3298 458.582 46.794 459.559 46.4088C460.534 46.025 461.765 45.8311 463.252 45.8311C464.737 45.8311 465.967 46.025 466.944 46.4088C467.92 46.794 468.697 47.3298 469.275 48.0188C469.852 48.7064 470.257 49.5378 470.492 50.5144C470.725 51.4909 470.843 52.5705 470.843 53.7532C470.843 54.9359 470.725 56.0155 470.492 56.9921ZM479.618 27.3135C479.294 27.049 478.908 26.9175 478.453 26.9175H472.344C471.375 26.9175 470.89 27.3135 470.89 28.1042V39.6802C468.544 38.7091 465.167 38.1476 463.25 38.1476C460.115 38.1476 457.455 38.484 455.273 39.1581C453.089 39.8321 451.301 40.8209 449.91 42.1256C448.518 43.4291 447.506 45.0403 446.877 46.9595C446.246 48.88 445.932 51.0691 445.932 53.5308C445.932 56.0223 446.246 58.2263 446.877 60.1455C447.506 62.0646 448.518 63.6773 449.91 64.9807C451.301 66.2854 453.089 67.2728 455.273 67.9469C457.455 68.621 460.115 68.9885 463.25 68.9573C465.97 68.9329 468.739 68.1395 470.89 66.8144V67.7C470.89 68.4921 471.375 68.8868 472.344 68.8868H478.453C478.908 68.8868 479.294 68.7552 479.618 68.4921C479.941 68.2276 480.101 67.9198 480.101 67.5685V28.2358C480.101 27.8845 479.941 27.578 479.618 27.3135Z" fill="white"/>
<path d="M411.743 68.2807C412.051 68.5438 412.429 68.6768 412.882 68.6768H419.04C419.491 68.6768 419.847 68.575 420.106 68.3689C420.365 68.1641 420.495 67.8711 420.495 67.49V67.1197C420.479 66.9773 420.472 66.8335 420.472 66.6857V49.9083C420.472 47.5822 422.375 45.6793 424.701 45.6793H429.742C432.068 45.6793 433.972 47.5822 433.972 49.9083V67.3571C433.972 67.7097 434.134 68.0176 434.457 68.2807C434.779 68.5438 435.167 68.6768 435.62 68.6768H441.729C442.699 68.6768 443.184 68.2807 443.184 67.49L443.281 45.3403H443.228V45.2385C443.228 41.27 438.728 38.023 433.227 38.023H421.299C415.798 38.023 411.298 41.27 411.298 45.2385V45.3403H411.282V67.3571C411.282 67.7097 411.435 68.0176 411.743 68.2807Z" fill="white"/>
<path d="M407.848 38.4182C407.54 38.1551 407.162 38.0222 406.709 38.0222H400.551C400.099 38.0222 399.744 38.1253 399.485 38.3301C399.226 38.5349 399.096 38.8278 399.096 39.2089V39.5792C399.111 39.7216 399.119 39.8667 399.119 40.0132V56.7907C399.119 59.1167 397.216 61.0196 394.89 61.0196H389.847C387.521 61.0196 385.618 59.1167 385.618 56.7907V39.3419C385.618 38.9892 385.457 38.6813 385.134 38.4182C384.811 38.1551 384.423 38.0222 383.97 38.0222H377.861C376.892 38.0222 376.406 38.4182 376.406 39.2089L376.31 61.3587H376.363V61.4604C376.363 65.4289 380.863 68.6773 386.364 68.6773H398.291C403.793 68.6773 408.293 65.4289 408.293 61.4604V61.3587H408.309V39.3419C408.309 38.9892 408.156 38.6813 407.848 38.4182Z" fill="white"/>
<path d="M364.183 56.992C363.948 57.9685 363.543 58.8067 362.966 59.5079C362.389 60.2105 361.611 60.7612 360.635 61.1586C359.658 61.5587 358.428 61.758 356.943 61.758C355.456 61.758 354.225 61.5587 353.25 61.1586C352.273 60.7612 351.496 60.2105 350.918 59.5079C350.341 58.8067 349.942 57.9685 349.721 56.992C349.501 56.0155 349.391 54.9358 349.391 53.7532C349.391 52.5705 349.501 51.4908 349.721 50.5143C349.942 49.5378 350.341 48.7064 350.918 48.0187C351.496 47.3297 352.273 46.794 353.25 46.4088C354.225 46.025 355.456 45.831 356.943 45.831C358.428 45.831 359.658 46.025 360.635 46.4088C361.611 46.794 362.389 47.3297 362.966 48.0187C363.543 48.7064 363.948 49.5378 364.183 50.5143C364.416 51.4908 364.534 52.5705 364.534 53.7532C364.534 54.9358 364.416 56.0155 364.183 56.992ZM373.314 46.9594C372.683 45.0403 371.671 43.429 370.281 42.1256C368.888 40.8208 367.094 39.8321 364.896 39.158C362.698 38.4839 360.046 38.1462 356.942 38.1462C353.806 38.1462 351.146 38.4839 348.964 39.158C346.78 39.8321 344.993 40.8208 343.601 42.1256C342.21 43.429 341.198 45.0403 340.568 46.9594C339.938 48.88 339.623 51.069 339.623 53.5307C339.623 56.0209 339.938 58.2262 340.568 60.1454C341.198 62.0646 342.21 63.6772 343.601 64.9806C344.993 66.2854 346.78 67.2728 348.964 67.9468C351.146 68.6209 353.806 68.9573 356.942 68.9573C360.046 68.9573 362.698 68.6209 364.896 67.9468C367.094 67.2728 368.888 66.2854 370.281 64.9806C371.671 63.6772 372.683 62.0646 373.314 60.1454C373.943 58.2262 374.258 56.0209 374.258 53.5307C374.258 51.069 373.943 48.88 373.314 46.9594" fill="white"/>
<path d="M325.263 57.768C325.263 49.7333 293.932 54.9076 293.932 39.6302C293.932 31.1086 304.297 27.0912 314.182 27.0912C325.181 27.0912 335.099 30.7573 335.762 39.8961C335.778 40.1131 335.602 40.2989 335.383 40.2989H324.545C324.361 40.2989 324.207 40.1646 324.175 39.9842C323.425 35.9099 320.172 34.578 314.34 34.578C310.993 34.578 306.289 35.796 306.289 38.8992C306.289 46.2639 337.619 40.9689 337.619 56.7332C337.619 66.4714 326.22 70.0615 315.138 70.0615C303.334 70.0615 292.541 65.6739 292.187 55.8434C292.178 55.6305 292.353 55.4542 292.565 55.4542H303.952C304.148 55.4542 304.305 55.6047 304.327 55.7973C304.854 60.4888 309.855 62.6371 315.617 62.6371C319.363 62.6371 325.263 61.4802 325.263 57.768Z" fill="white"/>
<path d="M279.176 56.9921C278.941 57.9686 278.535 58.8068 277.959 59.508C277.381 60.2106 276.604 60.7612 275.628 61.1586C274.651 61.5587 273.419 61.7581 271.936 61.7581C270.449 61.7581 269.218 61.5587 268.242 61.1586C267.266 60.7612 266.489 60.2106 265.911 59.508C265.333 58.8068 264.934 57.9686 264.713 56.9921C264.494 56.0155 264.384 54.9359 264.384 53.7532C264.384 52.5705 264.494 51.4909 264.713 50.5144C264.934 49.5378 265.333 48.7064 265.911 48.0188C266.489 47.3298 267.266 46.794 268.242 46.4088C269.218 46.025 270.449 45.8311 271.936 45.8311C273.419 45.8311 274.651 46.025 275.628 46.4088C276.604 46.794 277.381 47.3298 277.959 48.0188C278.535 48.7064 278.941 49.5378 279.176 50.5144C279.409 51.4909 279.527 52.5705 279.527 53.7532C279.527 54.9359 279.409 56.0155 279.176 56.9921ZM288.302 38.0635C287.978 37.799 287.591 37.6675 287.137 37.6675H281.028C280.059 37.6675 279.574 38.0635 279.574 38.8543V39.6802C277.228 38.7091 273.851 38.1476 271.934 38.1476C268.799 38.1476 266.139 38.484 263.957 39.1581C261.773 39.8321 259.985 40.8209 258.594 42.1256C257.202 43.4291 256.19 45.0403 255.561 46.9595C254.93 48.88 254.616 51.0691 254.616 53.5308C254.616 56.0223 254.93 58.2263 255.561 60.1455C256.19 62.0646 257.202 63.6773 258.594 64.9807C259.985 66.2854 261.773 67.2728 263.957 67.9469C266.139 68.621 268.799 68.9885 271.934 68.9573C274.654 68.9329 277.423 68.1395 279.574 66.8144V67.7C279.574 68.4921 280.059 68.8868 281.028 68.8868H287.137C287.591 68.8868 287.978 68.7552 288.302 68.4921C288.625 68.2276 288.785 67.9198 288.785 67.5685V38.9858C288.785 38.6345 288.625 38.3266 288.302 38.0635" fill="white"/>
<path d="M252.177 61.1536L249.687 61.1169L249.67 61.1034C247.576 61.1034 245.824 59.4758 245.496 57.4712V42.2752H248.462H251.67C252.022 42.2752 252.33 42.1138 252.593 41.791C252.856 41.4682 252.989 41.0803 252.989 40.6273V34.5185C252.989 33.5474 252.593 33.0632 251.802 33.0632L248.509 33.0158C248.541 33.0171 248.271 33.0198 245.496 33.0239V31.4384V28.2307C245.496 27.8795 245.336 27.5716 245.011 27.3071C244.689 27.044 244.301 26.9124 243.848 26.9124H237.739C236.769 26.9124 236.285 27.3071 236.285 28.0992L236.236 31.4384C236.236 31.4384 236.236 32.3241 236.238 33.0144H235.249H232.04C231.689 33.0144 231.381 33.1758 231.118 33.4986C230.853 33.8228 230.721 34.2093 230.721 34.6637V40.7724C230.721 41.7408 231.118 42.2264 231.908 42.2264L234.789 42.2684C235.064 42.2671 235.524 42.2657 236.243 42.2657C236.251 51.8616 236.261 61.0152 236.261 61.0993C236.261 62.6238 236.905 63.8377 237.515 64.6813C237.649 64.9037 237.888 65.2387 238.287 65.6266C238.296 65.6361 238.309 65.6497 238.317 65.6592H238.322C239.726 67.0019 243.038 68.9306 250.486 68.9306C250.49 68.9306 250.492 68.9292 250.496 68.9292L252.086 68.9659C252.384 68.9659 252.624 68.7665 252.848 68.4925C253.072 68.2185 253.185 67.8889 253.185 67.5051V62.3892C253.185 61.5645 252.848 61.1536 252.177 61.1536Z" fill="white"/>
<path d="M207.55 48.0183C208.127 47.3307 208.904 46.7949 209.881 46.4084C210.856 46.0246 212.088 45.8306 213.574 45.8306C215.059 45.8306 216.29 46.0246 217.266 46.4084C218.243 46.7949 219.02 47.3307 219.598 48.0183C220.175 48.706 220.58 49.5387 220.814 50.5139C220.906 50.895 220.974 51.2965 221.03 51.7088H206.151C206.203 51.2965 206.268 50.895 206.353 50.5139C206.573 49.5387 206.973 48.706 207.55 48.0183ZM230.702 56.6566C230.825 55.6692 230.889 54.6303 230.889 53.5303C230.889 51.07 230.574 48.8796 229.945 46.959C229.314 45.0412 228.304 43.4286 226.912 42.1252C225.521 40.8204 223.726 39.8317 221.528 39.1576C219.33 38.4849 216.677 38.1472 213.573 38.1472C210.437 38.1472 207.777 38.4849 205.595 39.1576C203.411 39.8317 201.624 40.8204 200.232 42.1252C198.841 43.4286 197.829 45.0412 197.2 46.959C196.569 48.8796 196.254 51.07 196.254 53.5303C196.254 56.0205 196.569 58.2258 197.2 60.145C197.829 62.0642 198.841 63.6768 200.232 64.9802C201.624 66.285 203.411 67.2724 205.595 67.9464C207.777 68.6205 210.437 68.9569 213.573 68.9569C216.677 68.9569 219.33 68.6205 221.528 67.9464C223.726 67.2724 225.521 66.285 226.912 64.9802C227.739 64.2058 228.43 63.3187 228.986 62.3259C229.128 62.0723 228.948 61.759 228.658 61.759H213.588V61.7563C213.584 61.7563 213.578 61.7576 213.574 61.7576C212.088 61.7576 210.856 61.5583 209.881 61.1582C208.904 60.7608 208.127 60.2101 207.55 59.5089C206.919 58.7426 206.501 57.8122 206.296 56.7176C206.298 56.7163 206.299 56.7149 206.3 56.7136C213.706 56.7122 230.702 56.6566 230.702 56.6566" fill="white"/>
<path d="M192.656 68.6649H182.873C182.665 68.6649 182.496 68.4736 182.496 68.2376V37.5703H182.052L168.206 68.4316C168.143 68.5753 168.012 68.6649 167.871 68.6649H159.947C159.806 68.6649 159.677 68.5753 159.612 68.4316L145.469 37.0631H145.101V68.2376C145.101 68.4736 144.931 68.6649 144.723 68.6649H134.939C134.732 68.6649 134.562 68.4736 134.562 68.2376V27.8958C134.562 27.6612 134.732 27.4686 134.939 27.4686H151.247C151.39 27.4686 151.52 27.5608 151.585 27.706L163.798 55.4599H164.096L176.087 27.7087C176.15 27.5622 176.281 27.4686 176.426 27.4686H192.656C192.865 27.4686 193.034 27.6612 193.034 27.8958V68.2376C193.034 68.4736 192.865 68.6649 192.656 68.6649Z" fill="white"/>
<path d="M78.8458 73.7976C78.8458 77.2359 76.0328 80.0475 72.596 80.0475C69.1577 80.0475 66.3461 77.2359 66.3461 73.7976V26.2024C66.3461 22.7641 69.1577 19.9512 72.596 19.9512C76.0328 19.9512 78.8458 22.7641 78.8458 26.2024V73.7976ZM56.73 58.4131C56.73 61.8513 53.9184 64.6643 50.4801 64.6643C47.0433 64.6643 44.2303 61.8513 44.2303 58.4131V36.7788C44.2303 33.3406 47.0433 30.529 50.4801 30.529C53.9184 30.529 56.73 33.3406 56.73 36.7788V58.4131ZM33.6539 73.7976C33.6539 77.2359 30.8409 80.0475 27.4027 80.0475C23.9658 80.0475 21.1529 77.2359 21.1529 73.7976V26.2024C21.1529 22.7641 23.9658 19.9512 27.4027 19.9512C30.8409 19.9512 33.6539 22.7641 33.6539 26.2024V73.7976ZM50 -1.72737e-06C22.3857 -1.72737e-06 0 22.3857 0 50C0 77.6143 22.3857 100 50 100C77.6143 100 100 77.6143 100 50C100 22.3857 77.6143 -1.72737e-06 50 -1.72737e-06Z" fill="white"/>
</svg>
